<svg width="30" height="30" viewBox="0 0 30 30" fill="none" xmlns="http://www.w3.org/2000/svg">
<path d="M15 0C6.729 0 0 6.729 0 15C0 23.271 6.729 30 15 30C23.271 30 30 23.271 30 15C30 6.729 23.271 0 15 0ZM15 27.2727C8.23273 27.2727 2.72727 21.7672 2.72727 15C2.72727 8.23282 8.23273 2.72727 15 2.72727C21.7673 2.72727 27.2727 8.23282 27.2727 15C27.2727 21.7672 21.7672 27.2727 15 27.2727Z" fill="#30CE80"/>
<path d="M20.6248 9.69673L12.9107 17.4106L9.37529 13.8751C8.84283 13.3426 7.97938 13.3426 7.44683 13.875C6.91429 14.4075 6.91429 15.2709 7.44683 15.8035L11.9465 20.3033C12.2022 20.559 12.549 20.7027 12.9107 20.7027C12.9107 20.7027 12.9107 20.7027 12.9107 20.7027C13.2724 20.7027 13.6192 20.559 13.8749 20.3034L22.5532 11.6253C23.0858 11.0927 23.0858 10.2294 22.5532 9.69683C22.0207 9.16428 21.1573 9.16419 20.6248 9.69673Z" fill="#30CE80"/>
</svg>
