<svg width="30" height="30" viewBox="0 0 30 30" fill="none" xmlns="http://www.w3.org/2000/svg">
<g clip-path="url(#clip0)">
<path d="M19.138 10.8691C18.7499 10.8691 18.4354 11.1836 18.4354 11.5716V24.8503C18.4354 25.2381 18.7499 25.5529 19.138 25.5529C19.5261 25.5529 19.8406 25.2381 19.8406 24.8503V11.5716C19.8406 11.1836 19.5261 10.8691 19.138 10.8691Z" fill="#D6D6D6"/>
<path d="M10.8477 10.8691C10.4596 10.8691 10.1451 11.1836 10.1451 11.5716V24.8503C10.1451 25.2381 10.4596 25.5529 10.8477 25.5529C11.2357 25.5529 11.5502 25.2381 11.5502 24.8503V11.5716C11.5502 11.1836 11.2357 10.8691 10.8477 10.8691Z" fill="#D6D6D6"/>
<path d="M4.80554 8.93119V26.2411C4.80554 27.2643 5.18071 28.2251 5.83608 28.9145C6.48843 29.6058 7.39629 29.9983 8.34641 29.9999H21.6393C22.5897 29.9983 23.4976 29.6058 24.1497 28.9145C24.805 28.2251 25.1802 27.2643 25.1802 26.2411V8.93119C26.483 8.58539 27.3272 7.3268 27.1529 5.98998C26.9783 4.65345 25.8397 3.65365 24.4916 3.65338H20.8945V2.77516C20.8986 2.03663 20.6066 1.32747 20.0838 0.805758C19.561 0.284316 18.8507 -0.00604461 18.1122 -6.86968e-06H11.8735C11.135 -0.00604461 10.4248 0.284316 9.90195 0.805758C9.37914 1.32747 9.08713 2.03663 9.09125 2.77516V3.65338H5.49412C4.14606 3.65365 3.00739 4.65345 2.83285 5.98998C2.65858 7.3268 3.50276 8.58539 4.80554 8.93119V8.93119ZM21.6393 28.5947H8.34641C7.14517 28.5947 6.21069 27.5628 6.21069 26.2411V8.99294H23.775V26.2411C23.775 27.5628 22.8406 28.5947 21.6393 28.5947ZM10.4964 2.77516C10.4917 2.40933 10.6355 2.05722 10.8952 1.79897C11.1545 1.54072 11.5074 1.39883 11.8735 1.40514H18.1122C18.4783 1.39883 18.8312 1.54072 19.0906 1.79897C19.3502 2.05694 19.494 2.40933 19.4893 2.77516V3.65338H10.4964V2.77516ZM5.49412 5.05852H24.4916C25.1901 5.05852 25.7562 5.6247 25.7562 6.32316C25.7562 7.02162 25.1901 7.58779 24.4916 7.58779H5.49412C4.79566 7.58779 4.22949 7.02162 4.22949 6.32316C4.22949 5.6247 4.79566 5.05852 5.49412 5.05852V5.05852Z" fill="#D6D6D6"/>
<path d="M14.9929 10.8691C14.6049 10.8691 14.2903 11.1836 14.2903 11.5716V24.8503C14.2903 25.2381 14.6049 25.5529 14.9929 25.5529C15.381 25.5529 15.6955 25.2381 15.6955 24.8503V11.5716C15.6955 11.1836 15.381 10.8691 14.9929 10.8691Z" fill="#D6D6D6"/>
</g>
<defs>
<clipPath id="clip0">
<rect width="30" height="30" fill="white"/>
</clipPath>
</defs>
</svg>
